<svg class="marks" width="697" height="511" viewBox="0 0 697 511" version="1.1" xmlns="http://www.w3.org/2000/svg" xmlns:xlink="http://www.w3.org/1999/xlink"><rect width="697" height="511" style="fill: white;"></rect><g transform="translate(51,65)"><g class="mark-group role-frame root"><g transform="translate(0,0)"><path class="background" d="M0,0h600v400h-600Z" style="fill: none; stroke: #ddd; stroke-width: 0;"></path><g><g class="mark-group role-axis"><g transform="translate(0.5,0.5)"><path class="background" d="M0,0h0v0h0Z" style="pointer-events: none; fill: none;"></path><g><g class="mark-rule role-axis-grid" style="pointer-events: none;"><line transform="translate(0,400)" x2="600" y2="0" style="fill: none; stroke: #ddd; stroke-width: 1; opacity: 1;"></line><line transform="translate(0,360)" x2="600" y2="0" style="fill: none; stroke: #ddd; stroke-width: 1; opacity: 1;"></line><line transform="translate(0,320)" x2="600" y2="0" style="fill: none; stroke: #ddd; stroke-width: 1; opacity: 1;"></line><line transform="translate(0,280)" x2="600" y2="0" style="fill: none; stroke: #ddd; stroke-width: 1; opacity: 1;"></line><line transform="translate(0,240)" x2="600" y2="0" style="fill: none; stroke: #ddd; stroke-width: 1; opacity: 1;"></line><line transform="translate(0,200)" x2="600" y2="0" style="fill: none; stroke: #ddd; stroke-width: 1; opacity: 1;"></line><line transform="translate(0,160)" x2="600" y2="0" style="fill: none; stroke: #ddd; stroke-width: 1; opacity: 1;"></line><line transform="translate(0,120)" x2="600" y2="0" style="fill: none; stroke: #ddd; stroke-width: 1; opacity: 1;"></line><line transform="translate(0,80)" x2="600" y2="0" style="fill: none; stroke: #ddd; stroke-width: 1; opacity: 1;"></line><line transform="translate(0,40)" x2="600" y2="0" style="fill: none; stroke: #ddd; stroke-width: 1; opacity: 1;"></line><line transform="translate(0,0)" x2="600" y2="0" style="fill: none; stroke: #ddd; stroke-width: 1; opacity: 1;"></line></g></g><path class="foreground" d="" style="pointer-events: none; display: none; fill: none;"></path></g></g><g class="mark-group role-axis"><g transform="translate(0.5,400.5)"><path class="background" d="M0,0h0v0h0Z" style="pointer-events: none; fill: none;"></path><g><g class="mark-text role-axis-label" style="pointer-events: none;"><text text-anchor="start" transform="translate(0,18)" style="font-family: sans-serif; font-size: 10px; fill: #000; opacity: 1;">1</text><text text-anchor="middle" transform="translate(66.66666666666666,18)" style="font-family: sans-serif; font-size: 10px; fill: #000; opacity: 1;">2</text><text text-anchor="middle" transform="translate(133.33333333333331,18)" style="font-family: sans-serif; font-size: 10px; fill: #000; opacity: 1;">3</text><text text-anchor="middle" transform="translate(200,18)" style="font-family: sans-serif; font-size: 10px; fill: #000; opacity: 1;">4</text><text text-anchor="middle" transform="translate(266.66666666666663,18)" style="font-family: sans-serif; font-size: 10px; fill: #000; opacity: 1;">5</text><text text-anchor="middle" transform="translate(333.33333333333337,18)" style="font-family: sans-serif; font-size: 10px; fill: #000; opacity: 1;">6</text><text text-anchor="middle" transform="translate(400,18)" style="font-family: sans-serif; font-size: 10px; fill: #000; opacity: 1;">7</text><text text-anchor="middle" transform="translate(466.6666666666667,18)" style="font-family: sans-serif; font-size: 10px; fill: #000; opacity: 1;">8</text><text text-anchor="middle" transform="translate(533.3333333333333,18)" style="font-family: sans-serif; font-size: 10px; fill: #000; opacity: 1;">9</text><text text-anchor="end" transform="translate(600,18)" style="font-family: sans-serif; font-size: 10px; fill: #000; opacity: 1;">10</text></g><g class="mark-text role-axis-title" style="pointer-events: none;"><text text-anchor="middle" transform="translate(300,39)" style="font-family: sans-serif; font-size: 11px; font-style: italic; font-weight: normal; fill: #000; opacity: 1;">Corruption Perceptions Index, 2011 (10=least corrupt)</text></g></g><path class="foreground" d="" style="pointer-events: none; display: none; fill: none;"></path></g></g><g class="mark-group role-axis"><g transform="translate(0.5,0.5)"><path class="background" d="M0,0h0v0h0Z" style="pointer-events: none; fill: none;"></path><g><g class="mark-text role-axis-label" style="pointer-events: none;"><text text-anchor="end" transform="translate(-10,403)" style="font-family: sans-serif; font-size: 10px; fill: #000; opacity: 1;">0.0</text><text text-anchor="end" transform="translate(-10,363)" style="font-family: sans-serif; font-size: 10px; fill: #000; opacity: 1;">0.1</text><text text-anchor="end" transform="translate(-10,323)" style="font-family: sans-serif; font-size: 10px; fill: #000; opacity: 1;">0.2</text><text text-anchor="end" transform="translate(-10,283)" style="font-family: sans-serif; font-size: 10px; fill: #000; opacity: 1;">0.3</text><text text-anchor="end" transform="translate(-10,243)" style="font-family: sans-serif; font-size: 10px; fill: #000; opacity: 1;">0.4</text><text text-anchor="end" transform="translate(-10,203)" style="font-family: sans-serif; font-size: 10px; fill: #000; opacity: 1;">0.5</text><text text-anchor="end" transform="translate(-10,163)" style="font-family: sans-serif; font-size: 10px; fill: #000; opacity: 1;">0.6</text><text text-anchor="end" transform="translate(-10,123.00000000000001)" style="font-family: sans-serif; font-size: 10px; fill: #000; opacity: 1;">0.7</text><text text-anchor="end" transform="translate(-10,82.99999999999999)" style="font-family: sans-serif; font-size: 10px; fill: #000; opacity: 1;">0.8</text><text text-anchor="end" transform="translate(-10,42.99999999999999)" style="font-family: sans-serif; font-size: 10px; fill: #000; opacity: 1;">0.9</text><text text-anchor="end" transform="translate(-10,3)" style="font-family: sans-serif; font-size: 10px; fill: #000; opacity: 1;">1.0</text></g><g class="mark-text role-axis-title" style="pointer-events: none;"><text text-anchor="middle" transform="translate(-35,200) rotate(-90) translate(0,-2)" style="font-family: sans-serif; font-size: 11px; font-style: italic; font-weight: normal; fill: #000; opacity: 1;">Human Development Index, 2011 (1=best)</text></g></g><path class="foreground" d="" style="pointer-events: none; display: none; fill: none;"></path></g></g><g class="mark-line role-mark layer_0_marks"><path d="M33.33333333333333,230.0807423645784L36,227.2745047608381L38.66666666666667,224.5402299569462L41.33333333333334,221.87431923593977L44.00000000000001,219.27343725585908L46.66666666666668,216.7344869601842L49.33333333333335,214.25458740650197L54.66666666666667,209.46138160299918L59.99999999999999,204.87440020730915L65.33333333333333,200.47662746657085L70.66666666666667,196.25307042822877L76,192.19045050128364L81.33333333333333,188.2769516539738L86.66666666666666,184.50201320901255L92,180.85615808117333L97.33333333333333,177.33084942233393L108.00000000000001,170.6117215498403L118.66666666666669,164.29100478806157L129.33333333333337,158.32408460655668L140,152.67344476891532L150.66666666666663,147.30723705825434L161.33333333333334,142.19819403403093L182.66666666666669,132.66058901753706L204.00000000000006,123.90647548285156L225.33333333333331,115.81684412342241L246.66666666666669,108.29789762722322L267.99999999999994,101.27439649128851L289.3333333333333,94.6850648974162L310.6666666666667,88.47933574511787L332,82.61499210852645L353.33333333333337,77.05642426764987L374.6666666666667,71.77331904507484L396,66.739658837747L417.3333333333333,61.932946479284155L438.6666666666667,57.33359742334563L460.00000000000006,52.924457694388934L481.33333333333326,48.69041761480886L502.66666666666663,44.61809934322631L524,40.69560192002317L545.3333333333333,36.912291568988344L566.6666666666666,33.25862794475189" style="fill: none; stroke: red; stroke-width: 2;"></path></g><g class="mark-symbol role-mark layer_1_marks"><path transform="translate(33.33333333333333,240.79999999999998)" d="M4.330127018922194,0A4.330127018922194,4.330127018922194,0,1,1,-4.330127018922194,0A4.330127018922194,4.330127018922194,0,1,1,4.330127018922194,0" style="fill: white; stroke: #28aadc; stroke-width: 2; opacity: 0.7;"></path><path transform="translate(140,104.39999999999996)" d="M4.330127018922194,0A4.330127018922194,4.330127018922194,0,1,1,-4.330127018922194,0A4.330127018922194,4.330127018922194,0,1,1,4.330127018922194,0" style="fill: white; stroke: #248e84; stroke-width: 2; opacity: 0.7;"></path><path transform="translate(126.66666666666667,120.80000000000001)" d="M4.330127018922194,0A4.330127018922194,4.330127018922194,0,1,1,-4.330127018922194,0A4.330127018922194,4.330127018922194,0,1,1,4.330127018922194,0" style="fill: white; stroke: #f2483f; stroke-width: 2; opacity: 0.7;"></path><path transform="translate(66.66666666666666,205.6)" d="M4.330127018922194,0A4.330127018922194,4.330127018922194,0,1,1,-4.330127018922194,0A4.330127018922194,4.330127018922194,0,1,1,4.330127018922194,0" style="fill: white; stroke: #96503f; stroke-width: 2; opacity: 0.7;"></path><path transform="translate(133.33333333333331,81.19999999999999)" d="M4.330127018922194,0A4.330127018922194,4.330127018922194,0,1,1,-4.330127018922194,0A4.330127018922194,4.330127018922194,0,1,1,4.330127018922194,0" style="fill: white; stroke: #099dd7; stroke-width: 2; opacity: 0.7;"></path><path transform="translate(106.66666666666667,113.60000000000001)" d="M4.330127018922194,0A4.330127018922194,4.330127018922194,0,1,1,-4.330127018922194,0A4.330127018922194,4.330127018922194,0,1,1,4.330127018922194,0" style="fill: white; stroke: #248e84; stroke-width: 2; opacity: 0.7;"></path><path transform="translate(520,28.39999999999998)" d="M4.330127018922194,0A4.330127018922194,4.330127018922194,0,1,1,-4.330127018922194,0A4.330127018922194,4.330127018922194,0,1,1,4.330127018922194,0" style="fill: white; stroke: #28aadc; stroke-width: 2; opacity: 0.7;"></path><path transform="translate(453.3333333333333,46)" d="M4.330127018922194,0A4.330127018922194,4.330127018922194,0,1,1,-4.330127018922194,0A4.330127018922194,4.330127018922194,0,1,1,4.330127018922194,0" style="fill: white; stroke: #24576d; stroke-width: 2; opacity: 0.7;"></path><path transform="translate(93.33333333333333,120.00000000000001)" d="M4.330127018922194,0A4.330127018922194,4.330127018922194,0,1,1,-4.330127018922194,0A4.330127018922194,4.330127018922194,0,1,1,4.330127018922194,0" style="fill: white; stroke: #248e84; stroke-width: 2; opacity: 0.7;"></path><path transform="translate(420,91.60000000000004)" d="M4.330127018922194,0A4.330127018922194,4.330127018922194,0,1,1,-4.330127018922194,0A4.330127018922194,4.330127018922194,0,1,1,4.330127018922194,0" style="fill: white; stroke: #099dd7; stroke-width: 2; opacity: 0.7;"></path><path transform="translate(273.3333333333333,77.60000000000002)" d="M4.330127018922194,0A4.330127018922194,4.330127018922194,0,1,1,-4.330127018922194,0A4.330127018922194,4.330127018922194,0,1,1,4.330127018922194,0" style="fill: white; stroke: #f2483f; stroke-width: 2; opacity: 0.7;"></path><path transform="translate(113.33333333333334,200)" d="M4.330127018922194,0A4.330127018922194,4.330127018922194,0,1,1,-4.330127018922194,0A4.330127018922194,4.330127018922194,0,1,1,4.330127018922194,0" style="fill: white; stroke: #28aadc; stroke-width: 2; opacity: 0.7;"></path><path transform="translate(453.3333333333333,82.80000000000003)" d="M4.330127018922194,0A4.330127018922194,4.330127018922194,0,1,1,-4.330127018922194,0A4.330127018922194,4.330127018922194,0,1,1,4.330127018922194,0" style="fill: white; stroke: #099dd7; stroke-width: 2; opacity: 0.7;"></path><path transform="translate(93.33333333333333,97.60000000000004)" d="M4.330127018922194,0A4.330127018922194,4.330127018922194,0,1,1,-4.330127018922194,0A4.330127018922194,4.330127018922194,0,1,1,4.330127018922194,0" style="fill: white; stroke: #248e84; stroke-width: 2; opacity: 0.7;"></path><path transform="translate(433.3333333333333,45.60000000000004)" d="M4.330127018922194,0A4.330127018922194,4.330127018922194,0,1,1,-4.330127018922194,0A4.330127018922194,4.330127018922194,0,1,1,4.330127018922194,0" style="fill: white; stroke: #24576d; stroke-width: 2; opacity: 0.7;"></path><path transform="translate(133.33333333333331,229.2)" d="M4.330127018922194,0A4.330127018922194,4.330127018922194,0,1,1,-4.330127018922194,0A4.330127018922194,4.330127018922194,0,1,1,4.330127018922194,0" style="fill: white; stroke: #96503f; stroke-width: 2; opacity: 0.7;"></path><path transform="translate(313.33333333333337,191.2)" d="M4.330127018922194,0A4.330127018922194,4.330127018922194,0,1,1,-4.330127018922194,0A4.330127018922194,4.330127018922194,0,1,1,4.330127018922194,0" style="fill: white; stroke: #28aadc; stroke-width: 2; opacity: 0.7;"></path><path transform="translate(119.99999999999999,134.80000000000004)" d="M4.330127018922194,0A4.330127018922194,4.330127018922194,0,1,1,-4.330127018922194,0A4.330127018922194,4.330127018922194,0,1,1,4.330127018922194,0" style="fill: white; stroke: #099dd7; stroke-width: 2; opacity: 0.7;"></path><path transform="translate(146.66666666666669,106.80000000000001)" d="M4.330127018922194,0A4.330127018922194,4.330127018922194,0,1,1,-4.330127018922194,0A4.330127018922194,4.330127018922194,0,1,1,4.330127018922194,0" style="fill: white; stroke: #248e84; stroke-width: 2; opacity: 0.7;"></path><path transform="translate(340,146.8)" d="M4.330127018922194,0A4.330127018922194,4.330127018922194,0,1,1,-4.330127018922194,0A4.330127018922194,4.330127018922194,0,1,1,4.330127018922194,0" style="fill: white; stroke: #96503f; stroke-width: 2; opacity: 0.7;"></path><path transform="translate(186.66666666666666,112.80000000000001)" d="M4.330127018922194,0A4.330127018922194,4.330127018922194,0,1,1,-4.330127018922194,0A4.330127018922194,4.330127018922194,0,1,1,4.330127018922194,0" style="fill: white; stroke: #099dd7; stroke-width: 2; opacity: 0.7;"></path><path transform="translate(453.3333333333333,54.800000000000004)" d="M4.330127018922194,0A4.330127018922194,4.330127018922194,0,1,1,-4.330127018922194,0A4.330127018922194,4.330127018922194,0,1,1,4.330127018922194,0" style="fill: white; stroke: #24576d; stroke-width: 2; opacity: 0.7;"></path><path transform="translate(153.33333333333331,91.60000000000004)" d="M4.330127018922194,0A4.330127018922194,4.330127018922194,0,1,1,-4.330127018922194,0A4.330127018922194,4.330127018922194,0,1,1,4.330127018922194,0" style="fill: white; stroke: #24576d; stroke-width: 2; opacity: 0.7;"></path><path transform="translate(133.33333333333331,267.6)" d="M4.330127018922194,0A4.330127018922194,4.330127018922194,0,1,1,-4.330127018922194,0A4.330127018922194,4.330127018922194,0,1,1,4.330127018922194,0" style="fill: white; stroke: #96503f; stroke-width: 2; opacity: 0.7;"></path><path transform="translate(59.99999999999999,273.59999999999997)" d="M4.330127018922194,0A4.330127018922194,4.330127018922194,0,1,1,-4.330127018922194,0A4.330127018922194,4.330127018922194,0,1,1,4.330127018922194,0" style="fill: white; stroke: #96503f; stroke-width: 2; opacity: 0.7;"></path><path transform="translate(73.33333333333334,190.79999999999998)" d="M4.330127018922194,0A4.330127018922194,4.330127018922194,0,1,1,-4.330127018922194,0A4.330127018922194,4.330127018922194,0,1,1,4.330127018922194,0" style="fill: white; stroke: #28aadc; stroke-width: 2; opacity: 0.7;"></path><path transform="translate(100,207.20000000000002)" d="M4.330127018922194,0A4.330127018922194,4.330127018922194,0,1,1,-4.330127018922194,0A4.330127018922194,4.330127018922194,0,1,1,4.330127018922194,0" style="fill: white; stroke: #96503f; stroke-width: 2; opacity: 0.7;"></path><path transform="translate(513.3333333333333,36.79999999999999)" d="M4.330127018922194,0A4.330127018922194,4.330127018922194,0,1,1,-4.330127018922194,0A4.330127018922194,4.330127018922194,0,1,1,4.330127018922194,0" style="fill: white; stroke: #099dd7; stroke-width: 2; opacity: 0.7;"></path><path transform="translate(300,172.8)" d="M4.330127018922194,0A4.330127018922194,4.330127018922194,0,1,1,-4.330127018922194,0A4.330127018922194,4.330127018922194,0,1,1,4.330127018922194,0" style="fill: white; stroke: #96503f; stroke-width: 2; opacity: 0.7;"></path><path transform="translate(80.00000000000001,262.8)" d="M4.330127018922194,0A4.330127018922194,4.330127018922194,0,1,1,-4.330127018922194,0A4.330127018922194,4.330127018922194,0,1,1,4.330127018922194,0" style="fill: white; stroke: #96503f; stroke-width: 2; opacity: 0.7;"></path><path transform="translate(66.66666666666666,268.79999999999995)" d="M4.330127018922194,0A4.330127018922194,4.330127018922194,0,1,1,-4.330127018922194,0A4.330127018922194,4.330127018922194,0,1,1,4.330127018922194,0" style="fill: white; stroke: #96503f; stroke-width: 2; opacity: 0.7;"></path><path transform="translate(413.3333333333333,77.99999999999999)" d="M4.330127018922194,0A4.330127018922194,4.330127018922194,0,1,1,-4.330127018922194,0A4.330127018922194,4.330127018922194,0,1,1,4.330127018922194,0" style="fill: white; stroke: #099dd7; stroke-width: 2; opacity: 0.7;"></path><path transform="translate(173.33333333333334,125.19999999999997)" d="M4.330127018922194,0A4.330127018922194,4.330127018922194,0,1,1,-4.330127018922194,0A4.330127018922194,4.330127018922194,0,1,1,4.330127018922194,0" style="fill: white; stroke: #28aadc; stroke-width: 2; opacity: 0.7;"></path><path transform="translate(160,116.00000000000001)" d="M4.330127018922194,0A4.330127018922194,4.330127018922194,0,1,1,-4.330127018922194,0A4.330127018922194,4.330127018922194,0,1,1,4.330127018922194,0" style="fill: white; stroke: #099dd7; stroke-width: 2; opacity: 0.7;"></path><path transform="translate(93.33333333333333,226.79999999999998)" d="M4.330127018922194,0A4.330127018922194,4.330127018922194,0,1,1,-4.330127018922194,0A4.330127018922194,4.330127018922194,0,1,1,4.330127018922194,0" style="fill: white; stroke: #96503f; stroke-width: 2; opacity: 0.7;"></path><path transform="translate(66.66666666666666,285.59999999999997)" d="M4.330127018922194,0A4.330127018922194,4.330127018922194,0,1,1,-4.330127018922194,0A4.330127018922194,4.330127018922194,0,1,1,4.330127018922194,0" style="fill: white; stroke: #96503f; stroke-width: 2; opacity: 0.7;"></path><path transform="translate(80.00000000000001,186.80000000000004)" d="M4.330127018922194,0A4.330127018922194,4.330127018922194,0,1,1,-4.330127018922194,0A4.330127018922194,4.330127018922194,0,1,1,4.330127018922194,0" style="fill: white; stroke: #96503f; stroke-width: 2; opacity: 0.7;"></path><path transform="translate(253.33333333333334,102.39999999999996)" d="M4.330127018922194,0A4.330127018922194,4.330127018922194,0,1,1,-4.330127018922194,0A4.330127018922194,4.330127018922194,0,1,1,4.330127018922194,0" style="fill: white; stroke: #099dd7; stroke-width: 2; opacity: 0.7;"></path><path transform="translate(80.00000000000001,240)" d="M4.330127018922194,0A4.330127018922194,4.330127018922194,0,1,1,-4.330127018922194,0A4.330127018922194,4.330127018922194,0,1,1,4.330127018922194,0" style="fill: white; stroke: #96503f; stroke-width: 2; opacity: 0.7;"></path><path transform="translate(200,81.60000000000002)" d="M4.330127018922194,0A4.330127018922194,4.330127018922194,0,1,1,-4.330127018922194,0A4.330127018922194,4.330127018922194,0,1,1,4.330127018922194,0" style="fill: white; stroke: #248e84; stroke-width: 2; opacity: 0.7;"></path><path transform="translate(213.33333333333334,89.60000000000004)" d="M4.330127018922194,0A4.330127018922194,4.330127018922194,0,1,1,-4.330127018922194,0A4.330127018922194,4.330127018922194,0,1,1,4.330127018922194,0" style="fill: white; stroke: #099dd7; stroke-width: 2; opacity: 0.7;"></path><path transform="translate(353.33333333333337,64.00000000000001)" d="M4.330127018922194,0A4.330127018922194,4.330127018922194,0,1,1,-4.330127018922194,0A4.330127018922194,4.330127018922194,0,1,1,4.330127018922194,0" style="fill: white; stroke: #24576d; stroke-width: 2; opacity: 0.7;"></path><path transform="translate(226.66666666666669,54)" d="M4.330127018922194,0A4.330127018922194,4.330127018922194,0,1,1,-4.330127018922194,0A4.330127018922194,4.330127018922194,0,1,1,4.330127018922194,0" style="fill: white; stroke: #24576d; stroke-width: 2; opacity: 0.7;"></path><path transform="translate(560,41.99999999999999)" d="M4.330127018922194,0A4.330127018922194,4.330127018922194,0,1,1,-4.330127018922194,0A4.330127018922194,4.330127018922194,0,1,1,4.330127018922194,0" style="fill: white; stroke: #24576d; stroke-width: 2; opacity: 0.7;"></path><path transform="translate(133.33333333333331,228.00000000000003)" d="M4.330127018922194,0A4.330127018922194,4.330127018922194,0,1,1,-4.330127018922194,0A4.330127018922194,4.330127018922194,0,1,1,4.330127018922194,0" style="fill: white; stroke: #96503f; stroke-width: 2; opacity: 0.7;"></path><path transform="translate(280,110.39999999999996)" d="M4.330127018922194,0A4.330127018922194,4.330127018922194,0,1,1,-4.330127018922194,0A4.330127018922194,4.330127018922194,0,1,1,4.330127018922194,0" style="fill: white; stroke: #099dd7; stroke-width: 2; opacity: 0.7;"></path><path transform="translate(106.66666666666667,124.39999999999998)" d="M4.330127018922194,0A4.330127018922194,4.330127018922194,0,1,1,-4.330127018922194,0A4.330127018922194,4.330127018922194,0,1,1,4.330127018922194,0" style="fill: white; stroke: #099dd7; stroke-width: 2; opacity: 0.7;"></path><path transform="translate(113.33333333333334,112.00000000000001)" d="M4.330127018922194,0A4.330127018922194,4.330127018922194,0,1,1,-4.330127018922194,0A4.330127018922194,4.330127018922194,0,1,1,4.330127018922194,0" style="fill: white; stroke: #099dd7; stroke-width: 2; opacity: 0.7;"></path><path transform="translate(126.66666666666667,142.4)" d="M4.330127018922194,0A4.330127018922194,4.330127018922194,0,1,1,-4.330127018922194,0A4.330127018922194,4.330127018922194,0,1,1,4.330127018922194,0" style="fill: white; stroke: #f2483f; stroke-width: 2; opacity: 0.7;"></path><path transform="translate(160,130.39999999999998)" d="M4.330127018922194,0A4.330127018922194,4.330127018922194,0,1,1,-4.330127018922194,0A4.330127018922194,4.330127018922194,0,1,1,4.330127018922194,0" style="fill: white; stroke: #099dd7; stroke-width: 2; opacity: 0.7;"></path><path transform="translate(59.99999999999999,185.2)" d="M4.330127018922194,0A4.330127018922194,4.330127018922194,0,1,1,-4.330127018922194,0A4.330127018922194,4.330127018922194,0,1,1,4.330127018922194,0" style="fill: white; stroke: #96503f; stroke-width: 2; opacity: 0.7;"></path><path transform="translate(100,260.40000000000003)" d="M4.330127018922194,0A4.330127018922194,4.330127018922194,0,1,1,-4.330127018922194,0A4.330127018922194,4.330127018922194,0,1,1,4.330127018922194,0" style="fill: white; stroke: #96503f; stroke-width: 2; opacity: 0.7;"></path><path transform="translate(360.00000000000006,66.00000000000001)" d="M4.330127018922194,0A4.330127018922194,4.330127018922194,0,1,1,-4.330127018922194,0A4.330127018922194,4.330127018922194,0,1,1,4.330127018922194,0" style="fill: white; stroke: #24576d; stroke-width: 2; opacity: 0.7;"></path><path transform="translate(113.33333333333334,254.8)" d="M4.330127018922194,0A4.330127018922194,4.330127018922194,0,1,1,-4.330127018922194,0A4.330127018922194,4.330127018922194,0,1,1,4.330127018922194,0" style="fill: white; stroke: #96503f; stroke-width: 2; opacity: 0.7;"></path><path transform="translate(560,47.199999999999996)" d="M4.330127018922194,0A4.330127018922194,4.330127018922194,0,1,1,-4.330127018922194,0A4.330127018922194,4.330127018922194,0,1,1,4.330127018922194,0" style="fill: white; stroke: #24576d; stroke-width: 2; opacity: 0.7;"></path><path transform="translate(400,46.4)" d="M4.330127018922194,0A4.330127018922194,4.330127018922194,0,1,1,-4.330127018922194,0A4.330127018922194,4.330127018922194,0,1,1,4.330127018922194,0" style="fill: white; stroke: #24576d; stroke-width: 2; opacity: 0.7;"></path><path transform="translate(133.33333333333331,130.39999999999998)" d="M4.330127018922194,0A4.330127018922194,4.330127018922194,0,1,1,-4.330127018922194,0A4.330127018922194,4.330127018922194,0,1,1,4.330127018922194,0" style="fill: white; stroke: #96503f; stroke-width: 2; opacity: 0.7;"></path><path transform="translate(166.66666666666669,232.00000000000003)" d="M4.330127018922194,0A4.330127018922194,4.330127018922194,0,1,1,-4.330127018922194,0A4.330127018922194,4.330127018922194,0,1,1,4.330127018922194,0" style="fill: white; stroke: #96503f; stroke-width: 2; opacity: 0.7;"></path><path transform="translate(206.66666666666663,106.80000000000001)" d="M4.330127018922194,0A4.330127018922194,4.330127018922194,0,1,1,-4.330127018922194,0A4.330127018922194,4.330127018922194,0,1,1,4.330127018922194,0" style="fill: white; stroke: #248e84; stroke-width: 2; opacity: 0.7;"></path><path transform="translate(466.6666666666667,37.999999999999986)" d="M4.330127018922194,0A4.330127018922194,4.330127018922194,0,1,1,-4.330127018922194,0A4.330127018922194,4.330127018922194,0,1,1,4.330127018922194,0" style="fill: white; stroke: #24576d; stroke-width: 2; opacity: 0.7;"></path><path transform="translate(193.33333333333331,183.6)" d="M4.330127018922194,0A4.330127018922194,4.330127018922194,0,1,1,-4.330127018922194,0A4.330127018922194,4.330127018922194,0,1,1,4.330127018922194,0" style="fill: white; stroke: #96503f; stroke-width: 2; opacity: 0.7;"></path><path transform="translate(160,55.60000000000001)" d="M4.330127018922194,0A4.330127018922194,4.330127018922194,0,1,1,-4.330127018922194,0A4.330127018922194,4.330127018922194,0,1,1,4.330127018922194,0" style="fill: white; stroke: #24576d; stroke-width: 2; opacity: 0.7;"></path><path transform="translate(113.33333333333334,170.4)" d="M4.330127018922194,0A4.330127018922194,4.330127018922194,0,1,1,-4.330127018922194,0A4.330127018922194,4.330127018922194,0,1,1,4.330127018922194,0" style="fill: white; stroke: #099dd7; stroke-width: 2; opacity: 0.7;"></path><path transform="translate(73.33333333333334,262.40000000000003)" d="M4.330127018922194,0A4.330127018922194,4.330127018922194,0,1,1,-4.330127018922194,0A4.330127018922194,4.330127018922194,0,1,1,4.330127018922194,0" style="fill: white; stroke: #96503f; stroke-width: 2; opacity: 0.7;"></path><path transform="translate(80.00000000000001,258.8)" d="M4.330127018922194,0A4.330127018922194,4.330127018922194,0,1,1,-4.330127018922194,0A4.330127018922194,4.330127018922194,0,1,1,4.330127018922194,0" style="fill: white; stroke: #96503f; stroke-width: 2; opacity: 0.7;"></path><path transform="translate(100,146.8)" d="M4.330127018922194,0A4.330127018922194,4.330127018922194,0,1,1,-4.330127018922194,0A4.330127018922194,4.330127018922194,0,1,1,4.330127018922194,0" style="fill: white; stroke: #099dd7; stroke-width: 2; opacity: 0.7;"></path><path transform="translate(53.333333333333336,218.4)" d="M4.330127018922194,0A4.330127018922194,4.330127018922194,0,1,1,-4.330127018922194,0A4.330127018922194,4.330127018922194,0,1,1,4.330127018922194,0" style="fill: white; stroke: #099dd7; stroke-width: 2; opacity: 0.7;"></path><path transform="translate(106.66666666666667,150)" d="M4.330127018922194,0A4.330127018922194,4.330127018922194,0,1,1,-4.330127018922194,0A4.330127018922194,4.330127018922194,0,1,1,4.330127018922194,0" style="fill: white; stroke: #099dd7; stroke-width: 2; opacity: 0.7;"></path><path transform="translate(493.33333333333337,40.79999999999999)" d="M4.330127018922194,0A4.330127018922194,4.330127018922194,0,1,1,-4.330127018922194,0A4.330127018922194,4.330127018922194,0,1,1,4.330127018922194,0" style="fill: white; stroke: #28aadc; stroke-width: 2; opacity: 0.7;"></path><path transform="translate(239.99999999999997,73.60000000000002)" d="M4.330127018922194,0A4.330127018922194,4.330127018922194,0,1,1,-4.330127018922194,0A4.330127018922194,4.330127018922194,0,1,1,4.330127018922194,0" style="fill: white; stroke: #24576d; stroke-width: 2; opacity: 0.7;"></path><path transform="translate(486.66666666666674,40.79999999999999)" d="M4.330127018922194,0A4.330127018922194,4.330127018922194,0,1,1,-4.330127018922194,0A4.330127018922194,4.330127018922194,0,1,1,4.330127018922194,0" style="fill: white; stroke: #24576d; stroke-width: 2; opacity: 0.7;"></path><path transform="translate(140,181.2)" d="M4.330127018922194,0A4.330127018922194,4.330127018922194,0,1,1,-4.330127018922194,0A4.330127018922194,4.330127018922194,0,1,1,4.330127018922194,0" style="fill: white; stroke: #28aadc; stroke-width: 2; opacity: 0.7;"></path><path transform="translate(133.33333333333331,153.2)" d="M4.330127018922194,0A4.330127018922194,4.330127018922194,0,1,1,-4.330127018922194,0A4.330127018922194,4.330127018922194,0,1,1,4.330127018922194,0" style="fill: white; stroke: #28aadc; stroke-width: 2; opacity: 0.7;"></path><path transform="translate(113.33333333333334,117.19999999999997)" d="M4.330127018922194,0A4.330127018922194,4.330127018922194,0,1,1,-4.330127018922194,0A4.330127018922194,4.330127018922194,0,1,1,4.330127018922194,0" style="fill: white; stroke: #f2483f; stroke-width: 2; opacity: 0.7;"></path><path transform="translate(53.333333333333336,170.8)" d="M4.330127018922194,0A4.330127018922194,4.330127018922194,0,1,1,-4.330127018922194,0A4.330127018922194,4.330127018922194,0,1,1,4.330127018922194,0" style="fill: white; stroke: #f2483f; stroke-width: 2; opacity: 0.7;"></path><path transform="translate(433.3333333333333,36.79999999999999)" d="M4.330127018922194,0A4.330127018922194,4.330127018922194,0,1,1,-4.330127018922194,0A4.330127018922194,4.330127018922194,0,1,1,4.330127018922194,0" style="fill: white; stroke: #24576d; stroke-width: 2; opacity: 0.7;"></path><path transform="translate(320,44.8)" d="M4.330127018922194,0A4.330127018922194,4.330127018922194,0,1,1,-4.330127018922194,0A4.330127018922194,4.330127018922194,0,1,1,4.330127018922194,0" style="fill: white; stroke: #f2483f; stroke-width: 2; opacity: 0.7;"></path><path transform="translate(193.33333333333331,50.399999999999956)" d="M4.330127018922194,0A4.330127018922194,4.330127018922194,0,1,1,-4.330127018922194,0A4.330127018922194,4.330127018922194,0,1,1,4.330127018922194,0" style="fill: white; stroke: #24576d; stroke-width: 2; opacity: 0.7;"></path><path transform="translate(153.33333333333331,109.2)" d="M4.330127018922194,0A4.330127018922194,4.330127018922194,0,1,1,-4.330127018922194,0A4.330127018922194,4.330127018922194,0,1,1,4.330127018922194,0" style="fill: white; stroke: #099dd7; stroke-width: 2; opacity: 0.7;"></path><path transform="translate(466.6666666666667,39.599999999999994)" d="M4.330127018922194,0A4.330127018922194,4.330127018922194,0,1,1,-4.330127018922194,0A4.330127018922194,4.330127018922194,0,1,1,4.330127018922194,0" style="fill: white; stroke: #28aadc; stroke-width: 2; opacity: 0.7;"></path><path transform="translate(233.33333333333334,120.80000000000001)" d="M4.330127018922194,0A4.330127018922194,4.330127018922194,0,1,1,-4.330127018922194,0A4.330127018922194,4.330127018922194,0,1,1,4.330127018922194,0" style="fill: white; stroke: #f2483f; stroke-width: 2; opacity: 0.7;"></path><path transform="translate(113.33333333333334,102)" d="M4.330127018922194,0A4.330127018922194,4.330127018922194,0,1,1,-4.330127018922194,0A4.330127018922194,4.330127018922194,0,1,1,4.330127018922194,0" style="fill: white; stroke: #248e84; stroke-width: 2; opacity: 0.7;"></path><path transform="translate(80.00000000000001,196.4)" d="M4.330127018922194,0A4.330127018922194,4.330127018922194,0,1,1,-4.330127018922194,0A4.330127018922194,4.330127018922194,0,1,1,4.330127018922194,0" style="fill: white; stroke: #96503f; stroke-width: 2; opacity: 0.7;"></path><path transform="translate(140,150.4)" d="M4.330127018922194,0A4.330127018922194,4.330127018922194,0,1,1,-4.330127018922194,0A4.330127018922194,4.330127018922194,0,1,1,4.330127018922194,0" style="fill: white; stroke: #28aadc; stroke-width: 2; opacity: 0.7;"></path><path transform="translate(293.33333333333337,41.19999999999999)" d="M4.330127018922194,0A4.330127018922194,4.330127018922194,0,1,1,-4.330127018922194,0A4.330127018922194,4.330127018922194,0,1,1,4.330127018922194,0" style="fill: white; stroke: #28aadc; stroke-width: 2; opacity: 0.7;"></path><path transform="translate(239.99999999999997,96)" d="M4.330127018922194,0A4.330127018922194,4.330127018922194,0,1,1,-4.330127018922194,0A4.330127018922194,4.330127018922194,0,1,1,4.330127018922194,0" style="fill: white; stroke: #f2483f; stroke-width: 2; opacity: 0.7;"></path><path transform="translate(73.33333333333334,154)" d="M4.330127018922194,0A4.330127018922194,4.330127018922194,0,1,1,-4.330127018922194,0A4.330127018922194,4.330127018922194,0,1,1,4.330127018922194,0" style="fill: white; stroke: #248e84; stroke-width: 2; opacity: 0.7;"></path><path transform="translate(80.00000000000001,190.39999999999998)" d="M4.330127018922194,0A4.330127018922194,4.330127018922194,0,1,1,-4.330127018922194,0A4.330127018922194,4.330127018922194,0,1,1,4.330127018922194,0" style="fill: white; stroke: #28aadc; stroke-width: 2; opacity: 0.7;"></path><path transform="translate(213.33333333333334,77.99999999999999)" d="M4.330127018922194,0A4.330127018922194,4.330127018922194,0,1,1,-4.330127018922194,0A4.330127018922194,4.330127018922194,0,1,1,4.330127018922194,0" style="fill: white; stroke: #24576d; stroke-width: 2; opacity: 0.7;"></path><path transform="translate(100,104.39999999999996)" d="M4.330127018922194,0A4.330127018922194,4.330127018922194,0,1,1,-4.330127018922194,0A4.330127018922194,4.330127018922194,0,1,1,4.330127018922194,0" style="fill: white; stroke: #f2483f; stroke-width: 2; opacity: 0.7;"></path><path transform="translate(166.66666666666669,220.00000000000003)" d="M4.330127018922194,0A4.330127018922194,4.330127018922194,0,1,1,-4.330127018922194,0A4.330127018922194,4.330127018922194,0,1,1,4.330127018922194,0" style="fill: white; stroke: #96503f; stroke-width: 2; opacity: 0.7;"></path><path transform="translate(146.66666666666669,268.40000000000003)" d="M4.330127018922194,0A4.330127018922194,4.330127018922194,0,1,1,-4.330127018922194,0A4.330127018922194,4.330127018922194,0,1,1,4.330127018922194,0" style="fill: white; stroke: #96503f; stroke-width: 2; opacity: 0.7;"></path><path transform="translate(66.66666666666666,96)" d="M4.330127018922194,0A4.330127018922194,4.330127018922194,0,1,1,-4.330127018922194,0A4.330127018922194,4.330127018922194,0,1,1,4.330127018922194,0" style="fill: white; stroke: #f2483f; stroke-width: 2; opacity: 0.7;"></path><path transform="translate(253.33333333333334,75.99999999999997)" d="M4.330127018922194,0A4.330127018922194,4.330127018922194,0,1,1,-4.330127018922194,0A4.330127018922194,4.330127018922194,0,1,1,4.330127018922194,0" style="fill: white; stroke: #24576d; stroke-width: 2; opacity: 0.7;"></path><path transform="translate(500,53.2)" d="M4.330127018922194,0A4.330127018922194,4.330127018922194,0,1,1,-4.330127018922194,0A4.330127018922194,4.330127018922194,0,1,1,4.330127018922194,0" style="fill: white; stroke: #24576d; stroke-width: 2; opacity: 0.7;"></path><path transform="translate(133.33333333333331,208)" d="M4.330127018922194,0A4.330127018922194,4.330127018922194,0,1,1,-4.330127018922194,0A4.330127018922194,4.330127018922194,0,1,1,4.330127018922194,0" style="fill: white; stroke: #96503f; stroke-width: 2; opacity: 0.7;"></path><path transform="translate(133.33333333333331,240)" d="M4.330127018922194,0A4.330127018922194,4.330127018922194,0,1,1,-4.330127018922194,0A4.330127018922194,4.330127018922194,0,1,1,4.330127018922194,0" style="fill: white; stroke: #96503f; stroke-width: 2; opacity: 0.7;"></path><path transform="translate(219.99999999999997,95.60000000000004)" d="M4.330127018922194,0A4.330127018922194,4.330127018922194,0,1,1,-4.330127018922194,0A4.330127018922194,4.330127018922194,0,1,1,4.330127018922194,0" style="fill: white; stroke: #28aadc; stroke-width: 2; opacity: 0.7;"></path><path transform="translate(100,135.60000000000002)" d="M4.330127018922194,0A4.330127018922194,4.330127018922194,0,1,1,-4.330127018922194,0A4.330127018922194,4.330127018922194,0,1,1,4.330127018922194,0" style="fill: white; stroke: #28aadc; stroke-width: 2; opacity: 0.7;"></path><path transform="translate(119.99999999999999,256.4)" d="M4.330127018922194,0A4.330127018922194,4.330127018922194,0,1,1,-4.330127018922194,0A4.330127018922194,4.330127018922194,0,1,1,4.330127018922194,0" style="fill: white; stroke: #96503f; stroke-width: 2; opacity: 0.7;"></path><path transform="translate(306.66666666666663,67.19999999999997)" d="M4.330127018922194,0A4.330127018922194,4.330127018922194,0,1,1,-4.330127018922194,0A4.330127018922194,4.330127018922194,0,1,1,4.330127018922194,0" style="fill: white; stroke: #24576d; stroke-width: 2; opacity: 0.7;"></path><path transform="translate(93.33333333333333,218.79999999999998)" d="M4.330127018922194,0A4.330127018922194,4.330127018922194,0,1,1,-4.330127018922194,0A4.330127018922194,4.330127018922194,0,1,1,4.330127018922194,0" style="fill: white; stroke: #96503f; stroke-width: 2; opacity: 0.7;"></path><path transform="translate(273.3333333333333,108.80000000000001)" d="M4.330127018922194,0A4.330127018922194,4.330127018922194,0,1,1,-4.330127018922194,0A4.330127018922194,4.330127018922194,0,1,1,4.330127018922194,0" style="fill: white; stroke: #96503f; stroke-width: 2; opacity: 0.7;"></path><path transform="translate(133.33333333333331,92)" d="M4.330127018922194,0A4.330127018922194,4.330127018922194,0,1,1,-4.330127018922194,0A4.330127018922194,4.330127018922194,0,1,1,4.330127018922194,0" style="fill: white; stroke: #099dd7; stroke-width: 2; opacity: 0.7;"></path><path transform="translate(126.66666666666667,140.39999999999998)" d="M4.330127018922194,0A4.330127018922194,4.330127018922194,0,1,1,-4.330127018922194,0A4.330127018922194,4.330127018922194,0,1,1,4.330127018922194,0" style="fill: white; stroke: #248e84; stroke-width: 2; opacity: 0.7;"></path><path transform="translate(113.33333333333334,138.79999999999998)" d="M4.330127018922194,0A4.330127018922194,4.330127018922194,0,1,1,-4.330127018922194,0A4.330127018922194,4.330127018922194,0,1,1,4.330127018922194,0" style="fill: white; stroke: #28aadc; stroke-width: 2; opacity: 0.7;"></path><path transform="translate(200,91.60000000000004)" d="M4.330127018922194,0A4.330127018922194,4.330127018922194,0,1,1,-4.330127018922194,0A4.330127018922194,4.330127018922194,0,1,1,4.330127018922194,0" style="fill: white; stroke: #248e84; stroke-width: 2; opacity: 0.7;"></path><path transform="translate(160,167.19999999999996)" d="M4.330127018922194,0A4.330127018922194,4.330127018922194,0,1,1,-4.330127018922194,0A4.330127018922194,4.330127018922194,0,1,1,4.330127018922194,0" style="fill: white; stroke: #f2483f; stroke-width: 2; opacity: 0.7;"></path><path transform="translate(113.33333333333334,271.2)" d="M4.330127018922194,0A4.330127018922194,4.330127018922194,0,1,1,-4.330127018922194,0A4.330127018922194,4.330127018922194,0,1,1,4.330127018922194,0" style="fill: white; stroke: #96503f; stroke-width: 2; opacity: 0.7;"></path><path transform="translate(33.33333333333333,206.8)" d="M4.330127018922194,0A4.330127018922194,4.330127018922194,0,1,1,-4.330127018922194,0A4.330127018922194,4.330127018922194,0,1,1,4.330127018922194,0" style="fill: white; stroke: #28aadc; stroke-width: 2; opacity: 0.7;"></path><path transform="translate(226.66666666666669,150)" d="M4.330127018922194,0A4.330127018922194,4.330127018922194,0,1,1,-4.330127018922194,0A4.330127018922194,4.330127018922194,0,1,1,4.330127018922194,0" style="fill: white; stroke: #96503f; stroke-width: 2; opacity: 0.7;"></path><path transform="translate(80.00000000000001,216.8)" d="M4.330127018922194,0A4.330127018922194,4.330127018922194,0,1,1,-4.330127018922194,0A4.330127018922194,4.330127018922194,0,1,1,4.330127018922194,0" style="fill: white; stroke: #28aadc; stroke-width: 2; opacity: 0.7;"></path><path transform="translate(526.6666666666666,35.999999999999986)" d="M4.330127018922194,0A4.330127018922194,4.330127018922194,0,1,1,-4.330127018922194,0A4.330127018922194,4.330127018922194,0,1,1,4.330127018922194,0" style="fill: white; stroke: #24576d; stroke-width: 2; opacity: 0.7;"></path><path transform="translate(566.6666666666666,36.79999999999999)" d="M4.330127018922194,0A4.330127018922194,4.330127018922194,0,1,1,-4.330127018922194,0A4.330127018922194,4.330127018922194,0,1,1,4.330127018922194,0" style="fill: white; stroke: #28aadc; stroke-width: 2; opacity: 0.7;"></path><path transform="translate(100,164.4)" d="M4.330127018922194,0A4.330127018922194,4.330127018922194,0,1,1,-4.330127018922194,0A4.330127018922194,4.330127018922194,0,1,1,4.330127018922194,0" style="fill: white; stroke: #099dd7; stroke-width: 2; opacity: 0.7;"></path><path transform="translate(100,282)" d="M4.330127018922194,0A4.330127018922194,4.330127018922194,0,1,1,-4.330127018922194,0A4.330127018922194,4.330127018922194,0,1,1,4.330127018922194,0" style="fill: white; stroke: #96503f; stroke-width: 2; opacity: 0.7;"></path><path transform="translate(93.33333333333333,216.39999999999998)" d="M4.330127018922194,0A4.330127018922194,4.330127018922194,0,1,1,-4.330127018922194,0A4.330127018922194,4.330127018922194,0,1,1,4.330127018922194,0" style="fill: white; stroke: #96503f; stroke-width: 2; opacity: 0.7;"></path><path transform="translate(533.3333333333333,22.80000000000002)" d="M4.330127018922194,0A4.330127018922194,4.330127018922194,0,1,1,-4.330127018922194,0A4.330127018922194,4.330127018922194,0,1,1,4.330127018922194,0" style="fill: white; stroke: #24576d; stroke-width: 2; opacity: 0.7;"></path><path transform="translate(253.33333333333334,118.00000000000001)" d="M4.330127018922194,0A4.330127018922194,4.330127018922194,0,1,1,-4.330127018922194,0A4.330127018922194,4.330127018922194,0,1,1,4.330127018922194,0" style="fill: white; stroke: #f2483f; stroke-width: 2; opacity: 0.7;"></path><path transform="translate(100,198.4)" d="M4.330127018922194,0A4.330127018922194,4.330127018922194,0,1,1,-4.330127018922194,0A4.330127018922194,4.330127018922194,0,1,1,4.330127018922194,0" style="fill: white; stroke: #28aadc; stroke-width: 2; opacity: 0.7;"></path><path transform="translate(153.33333333333331,92.8)" d="M4.330127018922194,0A4.330127018922194,4.330127018922194,0,1,1,-4.330127018922194,0A4.330127018922194,4.330127018922194,0,1,1,4.330127018922194,0" style="fill: white; stroke: #099dd7; stroke-width: 2; opacity: 0.7;"></path><path transform="translate(80.00000000000001,213.60000000000002)" d="M4.330127018922194,0A4.330127018922194,4.330127018922194,0,1,1,-4.330127018922194,0A4.330127018922194,4.330127018922194,0,1,1,4.330127018922194,0" style="fill: white; stroke: #28aadc; stroke-width: 2; opacity: 0.7;"></path><path transform="translate(80.00000000000001,134)" d="M4.330127018922194,0A4.330127018922194,4.330127018922194,0,1,1,-4.330127018922194,0A4.330127018922194,4.330127018922194,0,1,1,4.330127018922194,0" style="fill: white; stroke: #099dd7; stroke-width: 2; opacity: 0.7;"></path><path transform="translate(160,110.00000000000001)" d="M4.330127018922194,0A4.330127018922194,4.330127018922194,0,1,1,-4.330127018922194,0A4.330127018922194,4.330127018922194,0,1,1,4.330127018922194,0" style="fill: white; stroke: #099dd7; stroke-width: 2; opacity: 0.7;"></path><path transform="translate(106.66666666666667,142.4)" d="M4.330127018922194,0A4.330127018922194,4.330127018922194,0,1,1,-4.330127018922194,0A4.330127018922194,4.330127018922194,0,1,1,4.330127018922194,0" style="fill: white; stroke: #28aadc; stroke-width: 2; opacity: 0.7;"></path><path transform="translate(300,74.80000000000003)" d="M4.330127018922194,0A4.330127018922194,4.330127018922194,0,1,1,-4.330127018922194,0A4.330127018922194,4.330127018922194,0,1,1,4.330127018922194,0" style="fill: white; stroke: #24576d; stroke-width: 2; opacity: 0.7;"></path><path transform="translate(340,76.39999999999998)" d="M4.330127018922194,0A4.330127018922194,4.330127018922194,0,1,1,-4.330127018922194,0A4.330127018922194,4.330127018922194,0,1,1,4.330127018922194,0" style="fill: white; stroke: #24576d; stroke-width: 2; opacity: 0.7;"></path><path transform="translate(413.3333333333333,67.60000000000002)" d="M4.330127018922194,0A4.330127018922194,4.330127018922194,0,1,1,-4.330127018922194,0A4.330127018922194,4.330127018922194,0,1,1,4.330127018922194,0" style="fill: white; stroke: #f2483f; stroke-width: 2; opacity: 0.7;"></path><path transform="translate(173.33333333333334,87.60000000000004)" d="M4.330127018922194,0A4.330127018922194,4.330127018922194,0,1,1,-4.330127018922194,0A4.330127018922194,4.330127018922194,0,1,1,4.330127018922194,0" style="fill: white; stroke: #24576d; stroke-width: 2; opacity: 0.7;"></path><path transform="translate(93.33333333333333,98)" d="M4.330127018922194,0A4.330127018922194,4.330127018922194,0,1,1,-4.330127018922194,0A4.330127018922194,4.330127018922194,0,1,1,4.330127018922194,0" style="fill: white; stroke: #248e84; stroke-width: 2; opacity: 0.7;"></path><path transform="translate(266.66666666666663,228.39999999999998)" d="M4.330127018922194,0A4.330127018922194,4.330127018922194,0,1,1,-4.330127018922194,0A4.330127018922194,4.330127018922194,0,1,1,4.330127018922194,0" style="fill: white; stroke: #96503f; stroke-width: 2; opacity: 0.7;"></path><path transform="translate(400,110.80000000000001)" d="M4.330127018922194,0A4.330127018922194,4.330127018922194,0,1,1,-4.330127018922194,0A4.330127018922194,4.330127018922194,0,1,1,4.330127018922194,0" style="fill: white; stroke: #099dd7; stroke-width: 2; opacity: 0.7;"></path><path transform="translate(320,113.19999999999996)" d="M4.330127018922194,0A4.330127018922194,4.330127018922194,0,1,1,-4.330127018922194,0A4.330127018922194,4.330127018922194,0,1,1,4.330127018922194,0" style="fill: white; stroke: #099dd7; stroke-width: 2; opacity: 0.7;"></path><path transform="translate(193.33333333333331,124.80000000000003)" d="M4.330127018922194,0A4.330127018922194,4.330127018922194,0,1,1,-4.330127018922194,0A4.330127018922194,4.330127018922194,0,1,1,4.330127018922194,0" style="fill: white; stroke: #28aadc; stroke-width: 2; opacity: 0.7;"></path><path transform="translate(226.66666666666669,92)" d="M4.330127018922194,0A4.330127018922194,4.330127018922194,0,1,1,-4.330127018922194,0A4.330127018922194,4.330127018922194,0,1,1,4.330127018922194,0" style="fill: white; stroke: #f2483f; stroke-width: 2; opacity: 0.7;"></path><path transform="translate(126.66666666666667,216.39999999999998)" d="M4.330127018922194,0A4.330127018922194,4.330127018922194,0,1,1,-4.330127018922194,0A4.330127018922194,4.330127018922194,0,1,1,4.330127018922194,0" style="fill: white; stroke: #96503f; stroke-width: 2; opacity: 0.7;"></path><path transform="translate(153.33333333333331,93.60000000000004)" d="M4.330127018922194,0A4.330127018922194,4.330127018922194,0,1,1,-4.330127018922194,0A4.330127018922194,4.330127018922194,0,1,1,4.330127018922194,0" style="fill: white; stroke: #248e84; stroke-width: 2; opacity: 0.7;"></path><path transform="translate(253.33333333333334,90.8)" d="M4.330127018922194,0A4.330127018922194,4.330127018922194,0,1,1,-4.330127018922194,0A4.330127018922194,4.330127018922194,0,1,1,4.330127018922194,0" style="fill: white; stroke: #96503f; stroke-width: 2; opacity: 0.7;"></path><path transform="translate(100,265.59999999999997)" d="M4.330127018922194,0A4.330127018922194,4.330127018922194,0,1,1,-4.330127018922194,0A4.330127018922194,4.330127018922194,0,1,1,4.330127018922194,0" style="fill: white; stroke: #96503f; stroke-width: 2; opacity: 0.7;"></path><path transform="translate(546.6666666666666,53.6)" d="M4.330127018922194,0A4.330127018922194,4.330127018922194,0,1,1,-4.330127018922194,0A4.330127018922194,4.330127018922194,0,1,1,4.330127018922194,0" style="fill: white; stroke: #28aadc; stroke-width: 2; opacity: 0.7;"></path><path transform="translate(200,66.39999999999998)" d="M4.330127018922194,0A4.330127018922194,4.330127018922194,0,1,1,-4.330127018922194,0A4.330127018922194,4.330127018922194,0,1,1,4.330127018922194,0" style="fill: white; stroke: #24576d; stroke-width: 2; opacity: 0.7;"></path><path transform="translate(326.6666666666667,46.4)" d="M4.330127018922194,0A4.330127018922194,4.330127018922194,0,1,1,-4.330127018922194,0A4.330127018922194,4.330127018922194,0,1,1,4.330127018922194,0" style="fill: white; stroke: #24576d; stroke-width: 2; opacity: 0.7;"></path><path transform="translate(113.33333333333334,196)" d="M4.330127018922194,0A4.330127018922194,4.330127018922194,0,1,1,-4.330127018922194,0A4.330127018922194,4.330127018922194,0,1,1,4.330127018922194,0" style="fill: white; stroke: #28aadc; stroke-width: 2; opacity: 0.7;"></path><path transform="translate(206.66666666666663,152.4)" d="M4.330127018922194,0A4.330127018922194,4.330127018922194,0,1,1,-4.330127018922194,0A4.330127018922194,4.330127018922194,0,1,1,4.330127018922194,0" style="fill: white; stroke: #96503f; stroke-width: 2; opacity: 0.7;"></path><path transform="translate(346.6666666666667,48.8)" d="M4.330127018922194,0A4.330127018922194,4.330127018922194,0,1,1,-4.330127018922194,0A4.330127018922194,4.330127018922194,0,1,1,4.330127018922194,0" style="fill: white; stroke: #24576d; stroke-width: 2; opacity: 0.7;"></path><path transform="translate(153.33333333333331,123.60000000000002)" d="M4.330127018922194,0A4.330127018922194,4.330127018922194,0,1,1,-4.330127018922194,0A4.330127018922194,4.330127018922194,0,1,1,4.330127018922194,0" style="fill: white; stroke: #28aadc; stroke-width: 2; opacity: 0.7;"></path><path transform="translate(40.00000000000001,236.80000000000004)" d="M4.330127018922194,0A4.330127018922194,4.330127018922194,0,1,1,-4.330127018922194,0A4.330127018922194,4.330127018922194,0,1,1,4.330127018922194,0" style="fill: white; stroke: #96503f; stroke-width: 2; opacity: 0.7;"></path><path transform="translate(133.33333333333331,127.99999999999999)" d="M4.330127018922194,0A4.330127018922194,4.330127018922194,0,1,1,-4.330127018922194,0A4.330127018922194,4.330127018922194,0,1,1,4.330127018922194,0" style="fill: white; stroke: #099dd7; stroke-width: 2; opacity: 0.7;"></path><path transform="translate(140,191.2)" d="M4.330127018922194,0A4.330127018922194,4.330127018922194,0,1,1,-4.330127018922194,0A4.330127018922194,4.330127018922194,0,1,1,4.330127018922194,0" style="fill: white; stroke: #96503f; stroke-width: 2; opacity: 0.7;"></path><path transform="translate(553.3333333333334,38.39999999999999)" d="M4.330127018922194,0A4.330127018922194,4.330127018922194,0,1,1,-4.330127018922194,0A4.330127018922194,4.330127018922194,0,1,1,4.330127018922194,0" style="fill: white; stroke: #24576d; stroke-width: 2; opacity: 0.7;"></path><path transform="translate(520,38.79999999999999)" d="M4.330127018922194,0A4.330127018922194,4.330127018922194,0,1,1,-4.330127018922194,0A4.330127018922194,4.330127018922194,0,1,1,4.330127018922194,0" style="fill: white; stroke: #24576d; stroke-width: 2; opacity: 0.7;"></path><path transform="translate(106.66666666666667,147.2)" d="M4.330127018922194,0A4.330127018922194,4.330127018922194,0,1,1,-4.330127018922194,0A4.330127018922194,4.330127018922194,0,1,1,4.330127018922194,0" style="fill: white; stroke: #f2483f; stroke-width: 2; opacity: 0.7;"></path><path transform="translate(86.66666666666666,157.20000000000002)" d="M4.330127018922194,0A4.330127018922194,4.330127018922194,0,1,1,-4.330127018922194,0A4.330127018922194,4.330127018922194,0,1,1,4.330127018922194,0" style="fill: white; stroke: #248e84; stroke-width: 2; opacity: 0.7;"></path><path transform="translate(133.33333333333331,213.60000000000002)" d="M4.330127018922194,0A4.330127018922194,4.330127018922194,0,1,1,-4.330127018922194,0A4.330127018922194,4.330127018922194,0,1,1,4.330127018922194,0" style="fill: white; stroke: #96503f; stroke-width: 2; opacity: 0.7;"></path><path transform="translate(160,127.19999999999997)" d="M4.330127018922194,0A4.330127018922194,4.330127018922194,0,1,1,-4.330127018922194,0A4.330127018922194,4.330127018922194,0,1,1,4.330127018922194,0" style="fill: white; stroke: #28aadc; stroke-width: 2; opacity: 0.7;"></path><path transform="translate(93.33333333333333,202)" d="M4.330127018922194,0A4.330127018922194,4.330127018922194,0,1,1,-4.330127018922194,0A4.330127018922194,4.330127018922194,0,1,1,4.330127018922194,0" style="fill: white; stroke: #28aadc; stroke-width: 2; opacity: 0.7;"></path><path transform="translate(93.33333333333333,225.99999999999997)" d="M4.330127018922194,0A4.330127018922194,4.330127018922194,0,1,1,-4.330127018922194,0A4.330127018922194,4.330127018922194,0,1,1,4.330127018922194,0" style="fill: white; stroke: #96503f; stroke-width: 2; opacity: 0.7;"></path><path transform="translate(140,118.39999999999998)" d="M4.330127018922194,0A4.330127018922194,4.330127018922194,0,1,1,-4.330127018922194,0A4.330127018922194,4.330127018922194,0,1,1,4.330127018922194,0" style="fill: white; stroke: #28aadc; stroke-width: 2; opacity: 0.7;"></path><path transform="translate(146.66666666666669,96)" d="M4.330127018922194,0A4.330127018922194,4.330127018922194,0,1,1,-4.330127018922194,0A4.330127018922194,4.330127018922194,0,1,1,4.330127018922194,0" style="fill: white; stroke: #099dd7; stroke-width: 2; opacity: 0.7;"></path><path transform="translate(186.66666666666666,120.80000000000001)" d="M4.330127018922194,0A4.330127018922194,4.330127018922194,0,1,1,-4.330127018922194,0A4.330127018922194,4.330127018922194,0,1,1,4.330127018922194,0" style="fill: white; stroke: #f2483f; stroke-width: 2; opacity: 0.7;"></path><path transform="translate(213.33333333333334,120.39999999999998)" d="M4.330127018922194,0A4.330127018922194,4.330127018922194,0,1,1,-4.330127018922194,0A4.330127018922194,4.330127018922194,0,1,1,4.330127018922194,0" style="fill: white; stroke: #248e84; stroke-width: 2; opacity: 0.7;"></path><path transform="translate(40.00000000000001,125.60000000000002)" d="M4.330127018922194,0A4.330127018922194,4.330127018922194,0,1,1,-4.330127018922194,0A4.330127018922194,4.330127018922194,0,1,1,4.330127018922194,0" style="fill: white; stroke: #248e84; stroke-width: 2; opacity: 0.7;"></path><path transform="translate(93.33333333333333,221.60000000000002)" d="M4.330127018922194,0A4.330127018922194,4.330127018922194,0,1,1,-4.330127018922194,0A4.330127018922194,4.330127018922194,0,1,1,4.330127018922194,0" style="fill: white; stroke: #96503f; stroke-width: 2; opacity: 0.7;"></path><path transform="translate(86.66666666666666,108.39999999999996)" d="M4.330127018922194,0A4.330127018922194,4.330127018922194,0,1,1,-4.330127018922194,0A4.330127018922194,4.330127018922194,0,1,1,4.330127018922194,0" style="fill: white; stroke: #248e84; stroke-width: 2; opacity: 0.7;"></path><path transform="translate(386.66666666666663,61.60000000000001)" d="M4.330127018922194,0A4.330127018922194,4.330127018922194,0,1,1,-4.330127018922194,0A4.330127018922194,4.330127018922194,0,1,1,4.330127018922194,0" style="fill: white; stroke: #f2483f; stroke-width: 2; opacity: 0.7;"></path><path transform="translate(406.66666666666663,35.999999999999986)" d="M4.330127018922194,0A4.330127018922194,4.330127018922194,0,1,1,-4.330127018922194,0A4.330127018922194,4.330127018922194,0,1,1,4.330127018922194,0" style="fill: white; stroke: #099dd7; stroke-width: 2; opacity: 0.7;"></path><path transform="translate(400,86.80000000000004)" d="M4.330127018922194,0A4.330127018922194,4.330127018922194,0,1,1,-4.330127018922194,0A4.330127018922194,4.330127018922194,0,1,1,4.330127018922194,0" style="fill: white; stroke: #099dd7; stroke-width: 2; opacity: 0.7;"></path><path transform="translate(40.00000000000001,143.60000000000005)" d="M4.330127018922194,0A4.330127018922194,4.330127018922194,0,1,1,-4.330127018922194,0A4.330127018922194,4.330127018922194,0,1,1,4.330127018922194,0" style="fill: white; stroke: #248e84; stroke-width: 2; opacity: 0.7;"></path><path transform="translate(166.66666666666669,153.2)" d="M4.330127018922194,0A4.330127018922194,4.330127018922194,0,1,1,-4.330127018922194,0A4.330127018922194,4.330127018922194,0,1,1,4.330127018922194,0" style="fill: white; stroke: #28aadc; stroke-width: 2; opacity: 0.7;"></path><path transform="translate(59.99999999999999,106)" d="M4.330127018922194,0A4.330127018922194,4.330127018922194,0,1,1,-4.330127018922194,0A4.330127018922194,4.330127018922194,0,1,1,4.330127018922194,0" style="fill: white; stroke: #099dd7; stroke-width: 2; opacity: 0.7;"></path><path transform="translate(73.33333333333334,215.20000000000002)" d="M4.330127018922194,0A4.330127018922194,4.330127018922194,0,1,1,-4.330127018922194,0A4.330127018922194,4.330127018922194,0,1,1,4.330127018922194,0" style="fill: white; stroke: #f2483f; stroke-width: 2; opacity: 0.7;"></path><path transform="translate(146.66666666666669,228.00000000000003)" d="M4.330127018922194,0A4.330127018922194,4.330127018922194,0,1,1,-4.330127018922194,0A4.330127018922194,4.330127018922194,0,1,1,4.330127018922194,0" style="fill: white; stroke: #96503f; stroke-width: 2; opacity: 0.7;"></path><path transform="translate(80.00000000000001,249.6)" d="M4.330127018922194,0A4.330127018922194,4.330127018922194,0,1,1,-4.330127018922194,0A4.330127018922194,4.330127018922194,0,1,1,4.330127018922194,0" style="fill: white; stroke: #96503f; stroke-width: 2; opacity: 0.7;"></path></g><g class="mark-text role-mark layer_2_marks"><text text-anchor="start" transform="translate(43.33333333333333,243.79999999999998)" style="font-family: sans-serif; font-size: 11px; fill: black;">Afghanistan</text><text text-anchor="start" transform="translate(143.33333333333331,84.19999999999999)" style="font-family: sans-serif; font-size: 11px; fill: black;">Argentina</text><text text-anchor="start" transform="translate(463.3333333333333,85.80000000000003)" style="font-family: sans-serif; font-size: 11px; fill: black;">Barbados</text><text text-anchor="start" transform="translate(323.33333333333337,194.2)" style="font-family: sans-serif; font-size: 11px; fill: black;">Bhutan</text><text text-anchor="start" transform="translate(350,149.8)" style="font-family: sans-serif; font-size: 11px; fill: black;">Botswana</text><text text-anchor="start" transform="translate(196.66666666666666,115.80000000000001)" style="font-family: sans-serif; font-size: 11px; fill: black;">Brazil</text><text text-anchor="start" transform="translate(463.3333333333333,57.800000000000004)" style="font-family: sans-serif; font-size: 11px; fill: black;">Britain</text><text text-anchor="start" transform="translate(310,175.8)" style="font-family: sans-serif; font-size: 11px; fill: black;">Cape Verde</text><text text-anchor="start" transform="translate(183.33333333333334,128.2)" style="font-family: sans-serif; font-size: 11px; fill: black;">China</text><text text-anchor="start" transform="translate(76.66666666666666,288.59999999999997)" style="font-family: sans-serif; font-size: 11px; fill: black;">Congo</text><text text-anchor="start" transform="translate(410,49.4)" style="font-family: sans-serif; font-size: 11px; fill: black;">France</text><text text-anchor="start" transform="translate(476.6666666666667,40.999999999999986)" style="font-family: sans-serif; font-size: 11px; fill: black;">Germany</text><text text-anchor="start" transform="translate(170,58.60000000000001)" style="font-family: sans-serif; font-size: 11px; fill: black;">Greece</text><text text-anchor="start" transform="translate(150,184.2)" style="font-family: sans-serif; font-size: 11px; fill: black;">India</text><text text-anchor="start" transform="translate(63.333333333333336,173.8)" style="font-family: sans-serif; font-size: 11px; fill: black;">Iraq</text><text text-anchor="start" transform="translate(203.33333333333331,53.399999999999956)" style="font-family: sans-serif; font-size: 11px; fill: black;">Italy</text><text text-anchor="start" transform="translate(476.6666666666667,42.599999999999994)" style="font-family: sans-serif; font-size: 11px; fill: black;">Japan</text><text text-anchor="start" transform="translate(43.33333333333333,209.8)" style="font-family: sans-serif; font-size: 11px; fill: black;">Myanmar</text><text text-anchor="start" transform="translate(576.6666666666666,39.79999999999999)" style="font-family: sans-serif; font-size: 11px; fill: black;">New Zealand</text><text text-anchor="start" transform="translate(543.3333333333333,25.80000000000002)" style="font-family: sans-serif; font-size: 11px; fill: black;">Norway</text><text text-anchor="start" transform="translate(103.33333333333333,101)" style="font-family: sans-serif; font-size: 11px; fill: black;">Russia</text><text text-anchor="start" transform="translate(276.66666666666663,231.39999999999998)" style="font-family: sans-serif; font-size: 11px; fill: black;">Rwanda</text><text text-anchor="start" transform="translate(556.6666666666666,56.6)" style="font-family: sans-serif; font-size: 11px; fill: black;">Singapore</text><text text-anchor="start" transform="translate(216.66666666666663,155.4)" style="font-family: sans-serif; font-size: 11px; fill: black;">South Africa</text><text text-anchor="start" transform="translate(356.6666666666667,51.8)" style="font-family: sans-serif; font-size: 11px; fill: black;">Spain</text><text text-anchor="start" transform="translate(50.00000000000001,239.80000000000004)" style="font-family: sans-serif; font-size: 11px; fill: black;">Sudan</text><text text-anchor="start" transform="translate(416.66666666666663,38.999999999999986)" style="font-family: sans-serif; font-size: 11px; fill: black;">United States</text><text text-anchor="start" transform="translate(70,109)" style="font-family: sans-serif; font-size: 11px; fill: black;">Venezuela</text></g><g class="mark-group role-legend"><g transform="translate(0,-31)"><path class="background" d="M0,0h623v13h-623Z" style="pointer-events: none; fill: none;"></path><g><g class="mark-group role-legend-entry"><g transform="translate(0,0)"><path class="background" d="M0,0h0v0h0Z" style="pointer-events: none; fill: none;"></path><g><g class="mark-group role-scope"><g transform="translate(0,0.25)"><path class="background" d="M0,0h45v12.5h-45Z" style="pointer-events: none; fill: none; opacity: 1;"></path><g><g class="mark-symbol role-legend-symbol" style="pointer-events: none;"><path transform="translate(6,6)" d="M5,0A5,5,0,1,1,-5,0A5,5,0,1,1,5,0" style="fill: white; stroke: #24576d; stroke-width: 1.5; opacity: 0.7;"></path></g><g class="mark-text role-legend-label" style="pointer-events: none;"><text text-anchor="start" transform="translate(16,9)" style="font-family: sans-serif; font-size: 10px; fill: #000; opacity: 1;">OECD</text></g></g><path class="foreground" d="" style="pointer-events: none; display: none; fill: none;"></path></g><g transform="translate(56,0.25)"><path class="background" d="M0,0h58v12.5h-58Z" style="pointer-events: none; fill: none; opacity: 1;"></path><g><g class="mark-symbol role-legend-symbol" style="pointer-events: none;"><path transform="translate(6,6)" d="M5,0A5,5,0,1,1,-5,0A5,5,0,1,1,5,0" style="fill: white; stroke: #099dd7; stroke-width: 1.5; opacity: 0.7;"></path></g><g class="mark-text role-legend-label" style="pointer-events: none;"><text text-anchor="start" transform="translate(16,9)" style="font-family: sans-serif; font-size: 10px; fill: #000; opacity: 1;">Americas</text></g></g><path class="foreground" d="" style="pointer-events: none; display: none; fill: none;"></path></g><g transform="translate(125,0.25)"><path class="background" d="M0,0h88v12.5h-88Z" style="pointer-events: none; fill: none; opacity: 1;"></path><g><g class="mark-symbol role-legend-symbol" style="pointer-events: none;"><path transform="translate(6,6)" d="M5,0A5,5,0,1,1,-5,0A5,5,0,1,1,5,0" style="fill: white; stroke: #28aadc; stroke-width: 1.5; opacity: 0.7;"></path></g><g class="mark-text role-legend-label" style="pointer-events: none;"><text text-anchor="start" transform="translate(16,9)" style="font-family: sans-serif; font-size: 10px; fill: #000; opacity: 1;">Asia &amp; Oceania</text></g></g><path class="foreground" d="" style="pointer-events: none; display: none; fill: none;"></path></g><g transform="translate(224,0.25)"><path class="background" d="M0,0h135v12.5h-135Z" style="pointer-events: none; fill: none; opacity: 1;"></path><g><g class="mark-symbol role-legend-symbol" style="pointer-events: none;"><path transform="translate(6,6)" d="M5,0A5,5,0,1,1,-5,0A5,5,0,1,1,5,0" style="fill: white; stroke: #248e84; stroke-width: 1.5; opacity: 0.7;"></path></g><g class="mark-text role-legend-label" style="pointer-events: none;"><text text-anchor="start" transform="translate(16,9)" style="font-family: sans-serif; font-size: 10px; fill: #000; opacity: 1;">Central &amp; Eastern Europe</text></g></g><path class="foreground" d="" style="pointer-events: none; display: none; fill: none;"></path></g><g transform="translate(370,0.25)"><path class="background" d="M0,0h136v12.5h-136Z" style="pointer-events: none; fill: none; opacity: 1;"></path><g><g class="mark-symbol role-legend-symbol" style="pointer-events: none;"><path transform="translate(6,6)" d="M5,0A5,5,0,1,1,-5,0A5,5,0,1,1,5,0" style="fill: white; stroke: #f2483f; stroke-width: 1.5; opacity: 0.7;"></path></g><g class="mark-text role-legend-label" style="pointer-events: none;"><text text-anchor="start" transform="translate(16,9)" style="font-family: sans-serif; font-size: 10px; fill: #000; opacity: 1;">Middle East &amp; North Africa</text></g></g><path class="foreground" d="" style="pointer-events: none; display: none; fill: none;"></path></g><g transform="translate(517,0.25)"><path class="background" d="M0,0h106v12.5h-106Z" style="pointer-events: none; fill: none; opacity: 1;"></path><g><g class="mark-symbol role-legend-symbol" style="pointer-events: none;"><path transform="translate(6,6)" d="M5,0A5,5,0,1,1,-5,0A5,5,0,1,1,5,0" style="fill: white; stroke: #96503f; stroke-width: 1.5; opacity: 0.7;"></path></g><g class="mark-text role-legend-label" style="pointer-events: none;"><text text-anchor="start" transform="translate(16,9)" style="font-family: sans-serif; font-size: 10px; fill: #000; opacity: 1;">Sub-Saharan Africa</text></g></g><path class="foreground" d="" style="pointer-events: none; display: none; fill: none;"></path></g></g></g><path class="foreground" d="" style="pointer-events: none; display: none; fill: none;"></path></g></g></g><path class="foreground" d="" style="pointer-events: none; display: none; fill: none;"></path></g></g><g class="mark-group role-title"><g transform="translate(-46,-50)"><path class="background" d="M0,0h0v0h0Z" style="pointer-events: none; fill: none;"></path><g><g class="mark-text role-title-text" style="pointer-events: none;"><text text-anchor="start" transform="translate(0,2)" style="font-family: sans-serif; font-size: 15px; font-weight: bold; fill: #000; opacity: 1;">Corruption and human development</text></g></g><path class="foreground" d="" style="pointer-events: none; display: none; fill: none;"></path></g></g></g><path class="foreground" d="" style="display: none; fill: none;"></path></g></g></g></svg>